<?xml version="1.0" standalone="no"?>
<!DOCTYPE svg PUBLIC "-//W3C//DTD SVG 20010904//EN"
 "http://www.w3.org/TR/2001/REC-SVG-20010904/DTD/svg10.dtd">
<svg version="1.0" xmlns="http://www.w3.org/2000/svg"
 width="1931.000000pt" height="1931.000000pt" viewBox="0 0 1931.000000 1931.000000"
 preserveAspectRatio="xMidYMid meet">
<metadata>
Created by potrace 1.11, written by Peter Selinger 2001-2013
</metadata>
<g transform="translate(0.000000,1931.000000) scale(0.100000,-0.100000)"
fill="#000000" stroke="none">
<path d="M6992 15666 c-194 -1946 -351 -3540 -350 -3541 3 -2 822 186 826 189
5 5 -108 6611 -116 6751 l-7 140 -353 -3539z"/>
<path d="M9485 12654 c-22 -2 -96 -8 -165 -14 -245 -21 -569 -78 -830 -146
-209 -55 -320 -93 -320 -109 0 -38 23 -221 29 -227 3 -4 141 -37 306 -73 165
-36 308 -68 318 -71 14 -5 17 -18 17 -95 0 -81 -2 -90 -17 -85 -10 2 -314 59
-676 126 l-657 122 -83 -21 c-45 -12 -361 -87 -702 -167 -341 -79 -623 -146
-627 -147 -5 -1 55 -81 132 -177 77 -96 140 -178 140 -181 0 -4 -46 -47 -102
-95 -134 -115 -438 -418 -565 -564 -118 -136 -277 -335 -353 -442 l-55 -78
-85 -26 c-327 -100 -777 -322 -1072 -531 -263 -185 -587 -478 -811 -733 -542
-617 -946 -1418 -1166 -2311 -37 -149 -91 -399 -91 -420 0 -5 17 -9 38 -9 l38
0 47 188 c26 103 54 211 63 240 l16 52 5964 0 5964 0 -2 -242 -3 -243 -3912
-3 -3912 -2 -11 -40 c-6 -21 -24 -106 -40 -187 -17 -81 -32 -156 -34 -165 -4
-16 4 -18 64 -18 l69 0 6 38 c9 54 19 74 95 198 44 69 79 115 95 122 14 7 66
12 114 12 74 0 93 -3 115 -21 51 -40 36 -82 -72 -191 -66 -67 -73 -78 -56 -84
30 -11 54 -35 54 -56 0 -16 9 -18 91 -18 l92 0 32 38 33 37 128 3 c154 4 196
-5 214 -49 l13 -31 256 7 c252 7 256 8 276 31 32 37 67 44 228 44 190 -1 288
-13 353 -45 46 -22 63 -25 170 -25 97 0 125 3 149 18 136 82 327 89 472 16 68
-34 74 -35 139 -29 55 6 71 12 90 34 22 26 24 26 154 26 131 0 132 0 155 -27
24 -28 25 -28 146 -28 120 0 123 1 152 28 28 27 30 27 150 26 164 -1 164 -1
310 0 128 1 129 1 152 -27 23 -26 28 -27 114 -27 82 0 92 2 114 24 32 32 72
39 197 34 91 -3 104 -5 120 -25 15 -19 28 -23 69 -23 29 0 51 5 51 11 0 5 16
17 36 25 29 12 68 15 170 12 121 -3 134 -5 156 -25 22 -21 35 -23 118 -23 83
0 96 2 118 23 23 21 29 22 245 21 200 -1 228 -3 284 -22 83 -29 154 -29 194 1
28 20 42 22 159 22 108 0 131 -3 147 -17 30 -28 201 -26 260 3 38 18 57 20
177 17 110 -2 137 -6 153 -20 16 -15 39 -18 123 -18 84 0 107 3 123 18 16 15
40 17 172 17 132 0 156 -2 172 -17 28 -25 148 -25 176 0 16 14 39 17 137 17
101 0 121 -3 139 -19 18 -16 32 -18 123 -14 62 4 118 12 140 22 51 22 270 23
312 1 38 -20 585 -22 604 -2 18 17 250 21 392 6 203 -21 387 -23 455 -4 51 13
102 15 325 11 146 -2 287 -7 313 -11 47 -7 48 -6 43 16 -3 13 -19 100 -36 193
-137 753 -368 1465 -680 2101 -660 1341 -1696 2310 -2962 2769 l-127 46 -168
171 c-451 461 -839 748 -1378 1019 -552 278 -1069 428 -1720 500 -97 11 -700
22 -780 14z m-1327 -1070 l642 -127 0 -1091 0 -1092 -57 4 c-32 2 -330 32
-663 66 l-605 61 -3 1159 -2 1158 22 -5 c13 -3 312 -63 666 -133z m-2 -2609
c827 -33 1328 -56 1333 -61 6 -6 2 -296 -5 -416 l-7 -98 1167 0 1166 0 -2
-242 -3 -243 -4522 -3 c-3429 -1 -4523 1 -4523 10 0 23 150 288 251 440 l24
38 2223 0 2223 0 -3 300 -3 300 31 0 c17 0 310 -11 650 -25z m4954 -1730 l0
-245 -5369 0 c-2954 0 -5372 3 -5375 8 -4 7 108 315 154 419 l22 53 3647 3
c2005 1 4383 3 5284 5 l1637 2 0 -245z"/>
<path d="M6558 5948 l-64 -103 39 -3 c45 -4 47 -3 159 121 l80 87 -75 0 -76 0
-63 -102z"/>
<path d="M3746 5759 c-53 -13 -133 -54 -182 -95 -179 -146 -213 -491 -62 -630
47 -43 77 -60 144 -80 71 -22 251 -23 329 -2 l50 13 3 89 c3 82 1 88 -15 81
-98 -40 -233 -44 -294 -9 -17 10 -46 36 -63 57 -28 35 -31 47 -34 120 -5 108
20 178 84 237 62 57 104 73 194 73 56 0 88 -5 124 -21 27 -12 50 -22 51 -22 2
0 11 35 20 77 20 90 17 94 -67 112 -58 13 -227 13 -282 0z"/>
<path d="M8905 5757 c-156 -52 -251 -164 -291 -343 -44 -201 13 -376 146 -444
62 -32 166 -45 246 -31 228 40 357 212 358 481 1 167 -45 259 -158 317 -44 23
-65 27 -156 30 -68 2 -119 -2 -145 -10z m175 -155 c51 -28 74 -81 78 -179 9
-199 -100 -354 -232 -329 -43 8 -90 53 -106 102 -19 58 -8 218 19 279 53 120
154 173 241 127z"/>
<path d="M2281 5733 c-23 -46 -371 -773 -371 -778 0 -3 44 -5 99 -5 l98 0 38
85 38 85 148 0 c146 0 149 0 154 -22 3 -13 11 -50 18 -83 l12 -60 108 -3 c59
-1 107 1 107 6 0 8 -175 736 -186 775 -5 15 -20 17 -129 17 -108 0 -125 -2
-134 -17z m138 -303 c12 -63 25 -125 28 -137 5 -23 4 -23 -91 -23 -53 0 -96 3
-96 8 0 19 124 282 130 275 4 -4 17 -60 29 -123z"/>
<path d="M2870 5733 c0 -10 -20 -187 -45 -393 -25 -206 -45 -378 -45 -382 0
-5 114 -8 254 -8 l254 0 6 28 c3 15 8 51 11 80 l7 52 -156 0 -155 0 4 28 c3
15 18 144 35 287 16 143 32 275 35 293 l6 32 -106 0 c-93 0 -105 -2 -105 -17z"/>
<path d="M4260 5388 c-95 -200 -182 -380 -192 -400 l-18 -38 100 0 101 0 40
85 39 85 148 0 149 0 17 -82 c9 -44 18 -83 20 -85 2 -2 51 -2 108 -1 l105 3
-96 397 -96 398 -125 0 -126 0 -174 -362z m330 -100 c0 -16 -11 -18 -96 -18
-73 0 -95 3 -91 13 3 6 33 75 68 151 l63 139 28 -134 c15 -74 27 -142 28 -151z"/>
<path d="M5015 5718 c-10 -61 -85 -712 -85 -740 l0 -28 254 0 253 0 7 61 c11
110 26 99 -144 99 -127 0 -150 2 -150 15 0 8 16 146 35 306 19 161 35 298 35
305 0 11 -22 14 -100 14 l-99 0 -6 -32z"/>
<path d="M5626 5728 c-3 -13 -23 -180 -46 -373 -22 -192 -42 -362 -45 -377
l-4 -28 157 0 c289 0 384 24 487 121 98 93 141 212 133 373 -3 73 -10 101 -30
141 -33 63 -79 108 -143 137 -47 21 -65 23 -277 26 l-227 4 -5 -24z m347 -139
c50 -13 103 -61 118 -106 7 -21 10 -67 7 -112 -10 -172 -109 -261 -288 -261
-28 0 -50 3 -50 8 0 4 12 114 27 245 l28 237 60 0 c33 0 77 -5 98 -11z"/>
<path d="M6465 5708 c-14 -104 -85 -715 -85 -735 0 -22 3 -23 100 -23 55 0
100 2 100 4 0 3 20 174 45 380 25 207 45 385 45 396 0 19 -7 20 -99 20 l-100
0 -6 -42z"/>
<path d="M6996 5703 c-55 -111 -356 -741 -356 -747 0 -3 44 -6 99 -6 l98 0 38
85 38 85 148 0 c108 0 148 -3 152 -12 2 -7 10 -46 17 -85 l13 -73 109 0 c59 0
108 3 108 8 0 4 -43 182 -95 396 -52 214 -95 391 -95 393 0 2 -56 3 -125 3
l-125 0 -24 -47z m153 -273 c12 -63 25 -125 28 -137 5 -23 4 -23 -91 -23 -53
0 -96 3 -96 8 -1 19 126 288 131 278 3 -6 16 -63 28 -126z"/>
<path d="M7940 5733 c0 -10 -20 -187 -45 -393 -25 -206 -45 -378 -45 -382 0
-11 335 -10 405 2 92 15 163 56 200 114 26 43 30 59 30 120 0 84 -22 125 -85
152 l-39 17 52 31 c66 40 98 99 98 179 0 90 -39 142 -126 166 -23 6 -125 11
-242 11 -187 0 -203 -1 -203 -17z m352 -153 c22 -27 20 -79 -4 -107 -21 -26
-73 -43 -129 -43 l-52 0 7 73 c11 114 7 110 88 105 60 -3 73 -7 90 -28z m-58
-300 c14 -5 33 -21 42 -36 16 -24 16 -30 3 -68 -19 -54 -61 -76 -148 -76 l-64
0 7 63 c15 134 10 127 76 127 32 0 70 -4 84 -10z"/>
<path d="M9530 5738 c0 -7 -20 -182 -45 -388 -25 -206 -45 -381 -45 -387 0
-10 58 -13 254 -13 l255 0 6 48 c3 26 8 62 11 80 l5 32 -157 0 -156 0 5 33 c4
17 20 151 37 297 17 146 33 275 35 288 5 22 4 22 -100 22 -77 0 -105 -3 -105
-12z"/>
<path d="M10140 5743 c0 -5 -20 -177 -45 -383 -25 -206 -45 -383 -45 -392 0
-16 11 -18 99 -18 l100 0 6 43 c3 23 25 203 48 400 l43 357 -103 0 c-57 0
-103 -3 -103 -7z"/>
<path d="M10435 5728 c7 -31 145 -764 145 -772 0 -3 58 -6 129 -6 l128 0 176
398 176 397 -101 3 c-58 2 -104 -1 -107 -7 -4 -5 -58 -143 -121 -305 -73 -187
-117 -289 -121 -278 -3 9 -26 146 -50 305 l-44 287 -108 0 c-106 0 -107 0
-102 -22z"/>
<path d="M11328 5547 c-53 -111 -139 -291 -192 -399 l-95 -198 100 0 100 0 40
85 40 85 148 0 149 0 7 -37 c3 -21 11 -59 17 -85 l10 -48 110 0 c84 0 109 3
106 13 -3 6 -47 186 -98 400 l-94 387 -125 0 -126 0 -97 -203z m226 -111 c14
-71 26 -137 26 -148 0 -16 -9 -18 -90 -18 -65 0 -90 3 -90 12 0 13 122 290
126 285 1 -1 14 -60 28 -131z"/>
<path d="M12005 5708 c-14 -105 -85 -715 -85 -736 0 -22 2 -23 98 -20 l97 3
18 145 c9 80 19 151 22 159 5 13 43 11 98 -5 28 -9 45 -54 69 -183 l22 -121
107 0 107 0 -10 43 c-59 269 -72 312 -101 336 -24 19 -21 25 17 39 46 17 102
81 116 134 7 23 10 67 8 96 -4 43 -11 59 -39 88 -53 55 -101 64 -335 64 l-203
0 -6 -42z m361 -131 c28 -32 30 -54 9 -103 -18 -44 -63 -64 -146 -64 l-61 0 5
33 c3 17 9 63 13 101 l7 68 74 -4 c67 -3 78 -6 99 -31z"/>
<path d="M12736 5738 c-2 -7 -23 -175 -45 -373 -23 -198 -44 -372 -47 -387
l-6 -28 106 0 c95 0 106 2 106 18 0 10 20 188 45 395 25 208 45 380 45 382 0
3 -45 5 -100 5 -72 0 -102 -4 -104 -12z"/>
<path d="M13178 5528 c-58 -123 -145 -303 -192 -400 l-85 -178 100 0 100 0 40
85 40 85 148 0 149 0 7 -37 c3 -21 11 -59 17 -85 l10 -48 110 0 c84 0 109 3
106 13 -3 6 -47 186 -99 400 l-93 387 -126 0 -125 0 -107 -222z m236 -92 c14
-71 26 -137 26 -148 0 -16 -9 -18 -90 -18 -65 0 -90 3 -90 13 0 12 122 289
126 284 1 -1 14 -60 28 -131z"/>
<path d="M13866 5713 c-11 -72 -86 -714 -86 -739 0 -24 1 -24 89 -24 l89 0 6
43 c14 96 56 485 57 527 l1 45 9 -40 c5 -22 51 -160 101 -307 l93 -268 127 0
c96 0 128 3 128 13 0 6 20 180 45 386 25 206 45 380 45 387 0 11 -21 14 -90
14 l-89 0 -6 -32 c-15 -93 -55 -464 -56 -524 l-1 -69 -14 60 c-8 33 -53 174
-101 313 l-86 252 -127 0 -128 0 -6 -37z"/>
<path d="M14730 5364 c-102 -212 -186 -392 -188 -400 -3 -11 15 -14 95 -14
l98 0 36 83 37 82 150 3 150 3 7 -38 c3 -21 11 -59 17 -85 l10 -48 110 0 c84
0 109 3 106 13 -3 6 -47 186 -98 400 l-94 387 -125 0 -126 0 -185 -386z m314
72 c14 -71 26 -137 26 -148 0 -16 -9 -18 -90 -18 -65 0 -90 3 -90 12 0 13 122
290 126 285 1 -1 14 -60 28 -131z"/>
<path d="M15840 5746 c0 -3 -20 -175 -45 -383 -25 -207 -45 -385 -45 -395 0
-17 13 -18 163 -18 263 1 358 22 457 101 143 115 201 379 119 540 -24 48 -107
121 -155 139 -39 13 -494 28 -494 16z m347 -157 c99 -25 146 -118 123 -246
-27 -154 -101 -221 -258 -231 l-84 -5 6 39 c3 21 15 118 26 214 30 265 21 240
86 240 30 0 76 -5 101 -11z"/>
<path d="M16680 5733 c0 -10 -20 -187 -45 -393 -25 -206 -45 -378 -45 -382 0
-5 121 -8 269 -8 149 0 272 3 274 8 2 4 8 40 11 80 l7 72 -171 0 -172 0 5 23
c3 12 9 52 12 90 l7 67 153 0 c174 0 158 -8 170 93 l6 57 -156 0 -156 0 5 33
c3 17 8 53 11 80 l6 47 165 0 c163 0 164 0 165 23 0 12 4 46 8 75 l7 52 -268
0 c-249 0 -268 -1 -268 -17z"/>
<path d="M6736 4573 c-42 -76 -397 -725 -790 -1443 -392 -718 -712 -1307 -709
-1310 2 -3 2413 -17 5356 -31 l5352 -26 -6322 -2 -6322 -1 -18 -23 c-10 -13
-58 -86 -107 -163 l-88 -140 -78 -37 c-99 -46 -186 -125 -224 -202 -37 -77
-66 -195 -66 -273 l0 -65 -262 -411 c-143 -226 -265 -417 -271 -424 -8 -9
1540 -12 7730 -12 l7739 0 38 153 c22 83 54 209 72 280 17 70 39 143 48 161 9
19 16 45 16 59 0 14 80 152 196 338 108 173 201 326 206 342 6 15 7 44 3 63
-8 46 -81 125 -137 149 -24 11 -44 19 -45 20 -1 0 7 34 17 75 32 122 61 109
-258 112 l-278 3 262 1455 c145 800 263 1463 263 1473 1 16 -273 17 -5623 17
l-5625 0 -75 -137z m1493 -1040 c151 -502 277 -911 279 -909 2 3 152 1195 152
1213 0 7 599 2 603 -4 3 -5 -4 -71 -14 -148 -25 -190 -26 -186 24 -119 24 33
78 91 120 130 133 124 291 185 479 183 89 0 193 -11 202 -20 4 -4 -91 -509
-96 -514 -2 -2 -34 4 -73 12 -89 19 -235 12 -326 -17 -87 -26 -177 -87 -227
-153 -98 -128 -114 -193 -176 -696 l-52 -416 -609 0 -609 0 -57 220 c-31 121
-59 232 -63 248 l-6 27 -514 0 -515 0 -128 -250 -128 -250 -352 0 c-194 0
-353 1 -353 3 0 3 1171 2143 1266 2315 l35 62 432 -2 432 -3 274 -912z m2791
347 c378 -34 591 -179 666 -455 10 -37 18 -117 21 -205 4 -133 0 -185 -56
-636 -34 -270 -61 -496 -61 -503 0 -8 -80 -11 -296 -11 l-296 0 7 133 7 132
-43 -41 c-193 -180 -416 -254 -731 -241 -98 3 -151 10 -203 27 -250 79 -375
270 -344 524 18 146 68 246 169 339 178 165 443 232 972 245 l253 7 3 37 c8
94 -47 177 -147 222 -83 37 -157 49 -296 49 -145 0 -269 -24 -464 -89 -73 -25
-136 -43 -138 -40 -3 3 3 91 13 196 20 220 2 192 150 235 223 65 568 96 814
75z m4407 -9 c29 -4 55 -10 58 -13 3 -2 -6 -60 -20 -128 -14 -67 -25 -129 -25
-137 0 -9 20 3 50 30 144 125 365 216 605 248 147 19 408 7 530 -25 301 -78
479 -252 546 -531 24 -103 27 -309 6 -455 l-12 -85 -692 -3 -693 -2 0 -28 c0
-90 67 -196 156 -248 192 -113 553 -102 918 27 61 21 111 37 111 36 4 -5 -51
-426 -55 -430 -12 -11 -260 -68 -367 -84 -88 -13 -179 -17 -358 -17 -210 0
-253 3 -343 22 -367 80 -581 255 -674 552 -20 67 -23 94 -22 245 0 193 17 286
79 430 19 45 35 85 35 89 0 15 -202 -2 -267 -22 -88 -28 -141 -62 -206 -132
-66 -71 -109 -156 -135 -266 -11 -44 -41 -258 -68 -477 l-48 -397 -341 0 -341
0 108 873 c59 479 108 878 108 885 0 9 68 12 305 12 168 0 305 -1 305 -2 0 -2
-9 -73 -20 -158 -11 -85 -20 -159 -20 -163 0 -5 16 13 36 40 87 116 208 220
310 264 117 52 289 72 441 50z m-2887 -40 c0 -5 -25 -210 -55 -456 -30 -245
-55 -485 -55 -534 0 -151 40 -234 134 -276 99 -45 221 -42 333 9 108 50 200
183 242 351 15 60 121 853 121 906 0 5 135 9 341 9 l342 0 -6 -42 c-3 -24 -52
-422 -108 -885 l-104 -843 -307 0 -308 0 0 23 c1 12 9 84 19 159 l17 137 -73
-74 c-121 -121 -234 -188 -412 -242 -79 -24 -101 -27 -266 -27 -143 -1 -193 3
-245 17 -221 60 -361 203 -405 414 -27 125 -19 251 51 815 36 292 67 535 70
540 7 11 674 10 674 -1z m-2831 -2336 c33 -16 41 -33 41 -81 0 -77 -63 -207
-372 -764 -39 -69 -32 -62 77 80 225 291 497 585 610 658 66 44 92 40 122 -18
19 -37 23 -56 20 -105 -5 -76 -21 -108 -162 -320 -188 -285 -245 -396 -245
-483 0 -48 14 -62 61 -62 27 0 50 10 86 36 72 54 153 136 153 155 0 36 73 160
128 217 92 96 196 144 272 127 37 -8 60 -46 41 -68 -9 -12 -6 -18 14 -31 22
-15 25 -23 25 -79 0 -41 -9 -85 -26 -132 -33 -90 -35 -111 -9 -107 11 2 36 14
55 28 l35 24 3 -25 c2 -15 -3 -33 -10 -42 -26 -33 -102 -73 -136 -73 -28 0
-42 -9 -78 -49 -84 -93 -166 -112 -235 -54 -32 27 -79 113 -79 146 0 9 -1 17
-2 17 -2 0 -53 -49 -115 -109 -166 -161 -254 -212 -312 -180 -41 23 -63 75
-56 132 16 133 115 348 279 611 104 167 124 216 89 216 -74 0 -290 -236 -556
-608 -155 -215 -167 -228 -195 -213 -30 16 -62 60 -62 85 0 12 14 44 31 72 59
92 202 348 280 501 119 233 130 292 52 280 -53 -9 -228 -92 -365 -173 -70 -42
-132 -73 -138 -69 -18 11 -11 74 14 123 34 68 107 161 157 202 59 48 122 90
128 85 2 -3 -15 -23 -38 -46 -24 -22 -41 -43 -38 -45 3 -3 65 25 138 62 191
96 255 112 318 79z m-2708 -39 c23 -51 -27 -185 -125 -333 -64 -97 -178 -237
-318 -391 l-121 -134 5 -69 c9 -122 59 -143 140 -59 43 44 47 52 38 75 -17 45
-11 88 19 141 34 59 134 154 162 154 48 0 42 -95 -14 -222 -28 -63 -23 -78 28
-78 44 0 94 38 126 98 11 20 10 24 -9 38 -27 18 -29 67 -7 121 23 55 91 141
126 159 40 20 58 7 40 -32 -6 -15 -10 -28 -8 -30 2 -2 52 3 112 11 125 18 139
13 150 -55 8 -45 1 -61 -66 -144 -65 -79 -101 -154 -97 -198 3 -29 7 -33 36
-36 59 -6 162 69 182 133 17 54 180 215 280 277 84 52 195 98 239 98 29 0 49
-17 71 -59 11 -22 10 -27 -15 -48 -27 -23 -27 -24 -11 -69 18 -53 17 -57 -46
-152 -56 -86 -68 -131 -44 -167 23 -36 70 -33 130 6 50 34 350 369 377 422 9
18 23 46 31 62 16 35 55 57 86 48 17 -4 22 -13 22 -38 0 -19 9 -73 21 -122 40
-170 -4 -275 -171 -405 l-35 -28 43 0 c52 0 120 33 196 95 31 25 58 45 61 45
3 0 5 -12 5 -27 0 -20 -14 -41 -52 -77 -160 -150 -264 -200 -352 -166 -65 24
-136 115 -136 175 0 14 -2 25 -4 25 -2 0 -41 -39 -87 -86 -100 -102 -160 -144
-205 -144 -65 0 -80 66 -45 200 11 41 19 75 18 77 -1 1 -26 -26 -54 -60 -80
-96 -150 -165 -184 -183 -27 -13 -33 -14 -52 -1 -27 18 -71 96 -87 155 l-11
43 -65 -70 c-120 -130 -201 -161 -248 -98 -16 22 -21 43 -21 90 0 71 33 152
105 258 40 58 41 61 19 56 -13 -3 -49 -10 -80 -17 -54 -10 -58 -14 -92 -68
-82 -133 -163 -192 -263 -192 -49 0 -53 -2 -79 -40 -36 -51 -117 -128 -150
-140 -72 -27 -121 -3 -158 79 -31 68 -30 229 1 330 81 257 337 611 557 769 40
29 73 28 86 -2z m7605 -3 c31 -121 -145 -404 -465 -745 l-91 -98 0 -67 c0
-131 45 -157 131 -76 l50 48 -12 46 c-11 42 -10 50 13 100 30 65 93 138 141
164 31 16 38 17 52 5 25 -21 14 -99 -24 -190 -18 -41 -29 -80 -27 -87 7 -18
60 -16 96 2 35 18 99 107 82 113 -49 16 -53 66 -12 148 47 96 160 190 160 134
0 -12 -5 -30 -10 -41 -6 -10 -9 -19 -7 -19 2 0 51 7 110 15 58 8 113 12 122 9
21 -8 35 -45 35 -92 0 -30 -10 -49 -56 -102 -53 -62 -114 -171 -114 -203 0
-71 76 -62 178 20 23 19 42 42 42 52 0 10 12 36 26 57 94 141 348 315 483 331
48 5 50 5 70 -28 27 -44 26 -65 -1 -80 -13 -6 -24 -13 -26 -14 -2 -2 4 -20 12
-40 24 -57 20 -73 -39 -164 -44 -68 -55 -92 -55 -125 0 -50 13 -66 56 -66 49
0 134 64 222 166 42 49 116 135 165 191 48 55 87 106 87 113 0 29 33 79 58 88
45 16 71 -1 70 -45 0 -21 7 -66 16 -99 40 -156 9 -253 -119 -372 l-79 -72 40
0 c50 0 122 35 194 95 l55 45 4 -27 c3 -24 -9 -39 -78 -103 -152 -143 -247
-178 -341 -128 -56 30 -106 94 -115 148 l-7 40 -91 -93 c-51 -52 -111 -104
-134 -116 -50 -25 -95 -27 -113 -5 -20 23 -15 128 9 204 l20 65 -32 -36 c-18
-19 -64 -72 -104 -116 -39 -44 -88 -88 -108 -97 -36 -18 -37 -17 -62 6 -31 28
-83 134 -83 168 0 22 -11 14 -87 -61 -103 -101 -128 -119 -164 -119 -63 0 -89
37 -89 127 0 66 33 146 101 246 22 32 39 60 37 62 -2 2 -37 -4 -79 -12 -73
-15 -76 -16 -98 -58 -35 -66 -118 -153 -172 -180 -32 -17 -65 -25 -98 -25 -48
0 -49 -1 -106 -70 -91 -112 -177 -148 -238 -100 -30 24 -67 115 -67 165 0 19
-2 35 -4 35 -2 0 -39 -36 -82 -81 -120 -122 -193 -162 -243 -130 -31 19 -23
143 15 258 4 10 -13 -4 -37 -32 -86 -99 -174 -187 -202 -202 -25 -13 -31 -13
-52 1 -30 20 -59 68 -81 134 l-17 54 -26 -34 c-89 -115 -183 -188 -243 -188
-58 0 -104 69 -123 182 l-6 38 -62 -67 c-91 -97 -170 -153 -218 -153 -28 0
-41 5 -49 19 -16 31 -12 120 10 196 l19 70 -47 -55 c-86 -101 -167 -182 -196
-197 -26 -14 -31 -13 -55 5 -46 34 -85 125 -89 207 -5 95 11 128 110 226 125
124 293 223 397 236 43 5 50 3 69 -22 29 -36 28 -71 0 -86 -13 -6 -24 -13 -26
-14 -1 -1 5 -18 13 -38 24 -57 19 -79 -36 -162 -79 -119 -78 -195 0 -195 30 0
52 10 100 45 36 26 62 54 65 67 29 160 76 294 154 438 120 224 258 379 317
356 23 -8 20 -119 -6 -202 -42 -137 -160 -338 -291 -490 l-49 -59 3 -74 c3
-65 6 -76 31 -97 16 -13 39 -24 53 -24 36 0 170 131 199 195 61 136 348 344
501 362 36 5 44 2 62 -22 30 -37 28 -72 -2 -87 l-25 -11 20 -49 c22 -56 21
-57 -51 -169 -45 -69 -56 -112 -41 -152 15 -38 68 -37 131 3 69 44 86 68 99
140 44 233 318 639 545 807 69 51 102 56 112 16z m-2626 -9 c171 -40 255 -153
254 -340 -2 -194 -107 -369 -284 -474 -128 -76 -311 -118 -467 -107 l-83 6
-32 -62 c-20 -39 -32 -79 -33 -107 -1 -36 -12 -62 -54 -127 -56 -87 -85 -108
-108 -77 -7 10 -13 28 -13 39 0 34 34 126 92 246 l52 110 -37 30 c-50 41 -52
91 -5 145 34 38 109 79 165 90 29 5 44 25 151 198 65 105 123 197 127 205 7
12 -3 13 -59 8 -93 -9 -234 -49 -362 -102 -110 -46 -134 -52 -134 -35 0 14 98
208 121 241 21 30 150 76 305 109 113 24 312 26 404 4z m-5804 -19 c24 -24 63
-98 64 -121 0 -6 -29 -16 -64 -22 -35 -5 -83 -19 -107 -30 l-44 -19 75 5 c66
3 79 1 110 -20 58 -39 72 -78 67 -184 -12 -212 -160 -505 -323 -637 -179 -145
-363 -167 -459 -55 -76 89 -105 258 -71 411 47 211 239 467 457 612 90 61 151
84 217 85 44 0 57 -4 78 -25z m11885 3 c21 -12 41 -30 44 -39 4 -13 -55 -117
-183 -321 -207 -331 -220 -355 -215 -380 6 -23 -26 -68 -47 -68 -20 0 -65 48
-75 80 -8 27 20 87 180 380 196 361 202 370 232 370 14 0 43 -10 64 -22z
m-14383 -69 c29 -6 59 -20 72 -34 19 -20 21 -30 15 -74 -11 -79 -38 -110 -127
-148 -42 -17 -102 -48 -132 -67 -30 -19 -58 -31 -60 -27 -9 15 35 62 92 98 48
31 53 37 37 46 -25 14 -245 -7 -348 -34 -189 -48 -304 -145 -239 -201 9 -9 78
-35 152 -58 229 -71 372 -155 414 -244 52 -111 -26 -269 -169 -339 -204 -102
-650 -119 -755 -30 -38 32 -39 71 -2 138 33 61 81 95 133 95 22 0 39 -2 39 -5
0 -2 -14 -12 -31 -21 -61 -31 -22 -39 179 -38 190 2 294 16 379 50 51 21 133
76 133 90 0 19 -89 95 -136 115 -24 11 -83 28 -131 39 -163 36 -307 98 -339
148 -33 50 -2 217 56 304 54 82 187 150 361 187 107 22 326 28 407 10z m458
-440 c10 -9 14 -22 10 -41 -4 -21 1 -34 19 -52 15 -15 25 -36 25 -53 0 -44
-28 -150 -51 -194 -24 -49 -19 -74 13 -63 43 13 77 45 97 89 28 64 103 176
145 218 29 30 44 37 74 37 38 0 62 -14 62 -36 0 -7 -31 -52 -70 -100 -81 -103
-116 -164 -107 -188 9 -24 25 -12 88 64 123 152 296 306 350 312 26 3 42 -22
53 -83 6 -32 2 -43 -28 -80 -69 -86 -136 -191 -147 -230 -10 -33 -10 -42 3
-55 20 -21 55 -6 133 56 35 28 66 50 69 50 3 0 6 -12 6 -27 0 -22 -21 -49 -99
-125 -141 -138 -194 -165 -235 -119 -45 50 -29 132 60 294 30 55 52 102 49
105 -10 11 -176 -169 -243 -264 -70 -100 -89 -118 -115 -108 -20 7 -48 71 -54
126 -3 26 -8 48 -10 48 -2 0 -21 -14 -43 -31 -24 -19 -54 -33 -81 -36 -36 -5
-55 -16 -105 -63 -37 -36 -76 -63 -101 -70 -153 -46 -260 192 -168 375 51 102
171 215 263 250 43 17 115 14 138 -6z m13467 -350 c41 -32 53 -85 33 -152 -18
-62 -58 -117 -86 -117 -30 0 -60 33 -67 73 -11 72 43 217 81 217 7 0 25 -9 39
-21z m-1135 -81 c18 -18 15 -47 -12 -104 -39 -83 -105 -120 -127 -70 -15 32
22 116 68 156 37 33 52 37 71 18z m570 0 c42 -42 -46 -203 -107 -196 -21 2
-27 9 -29 35 -6 57 70 173 112 173 7 0 17 -5 24 -12z"/>
<path d="M7358 3750 c-47 -91 -149 -290 -227 -442 l-141 -278 335 0 c261 0
335 3 335 13 0 6 -49 205 -108 442 l-108 430 -86 -165z"/>
<path d="M10701 2859 c-242 -28 -361 -112 -361 -255 0 -159 200 -228 422 -144
145 55 256 198 274 355 l7 55 -134 -1 c-74 -1 -168 -5 -208 -10z"/>
<path d="M16143 3495 c-81 -22 -132 -52 -193 -114 -56 -56 -113 -156 -126
-220 l-6 -31 397 0 397 0 -7 56 c-16 128 -60 210 -140 266 -81 55 -213 72
-322 43z"/>
<path d="M10385 757 c-89 -61 -152 -128 -164 -174 -22 -82 -24 -128 -6 -146
26 -27 84 -21 137 12 46 30 47 30 37 67 -15 51 -3 119 36 208 18 42 30 76 26
75 -3 0 -33 -19 -66 -42z"/>
<path d="M6848 1318 c-116 -120 -369 -519 -368 -583 1 -26 34 12 169 190 116
154 202 283 236 357 42 90 29 103 -37 36z"/>
<path d="M7794 781 c-153 -81 -249 -154 -280 -213 -18 -35 -18 -112 0 -127 23
-19 70 11 156 98 69 69 227 277 218 286 -2 2 -44 -18 -94 -44z"/>
<path d="M8282 698 c-56 -61 -102 -114 -102 -118 0 -5 11 -11 25 -14 13 -3 38
-26 55 -51 31 -45 31 -45 60 -30 68 35 95 107 85 224 -4 42 -10 81 -14 88 -4
8 -44 -29 -109 -99z"/>
<path d="M14435 1298 c-107 -118 -322 -459 -350 -558 l-7 -25 27 25 c67 61
325 422 381 532 25 48 31 88 15 88 -5 0 -35 -28 -66 -62z"/>
<path d="M13186 1159 c-19 -23 -53 -76 -75 -119 -43 -82 -105 -254 -98 -273 5
-15 94 106 144 197 94 168 112 292 29 195z"/>
<path d="M12537 772 c-192 -102 -273 -176 -284 -259 -4 -28 0 -44 13 -61 19
-22 20 -22 52 -5 62 34 131 104 215 216 85 114 122 167 116 167 -2 0 -52 -26
-112 -58z"/>
<path d="M13644 781 c-224 -119 -315 -212 -297 -304 8 -41 24 -48 62 -30 55
27 140 112 220 220 70 94 117 163 109 163 -2 0 -44 -22 -94 -49z"/>
<path d="M15388 776 c-134 -74 -224 -140 -255 -187 -50 -76 -37 -177 20 -148
56 29 122 87 175 152 75 93 176 237 165 237 -4 0 -52 -25 -105 -54z"/>
<path d="M15881 693 c-57 -63 -102 -115 -100 -116 2 -2 16 -8 31 -15 15 -6 40
-29 55 -51 16 -22 31 -40 35 -41 16 0 82 67 94 97 8 18 14 56 14 85 0 68 -11
158 -19 157 -3 -1 -53 -53 -110 -116z"/>
<path d="M11763 1190 c-7 -29 -47 -108 -94 -188 -45 -75 -84 -141 -87 -146 -2
-4 20 -7 49 -5 31 2 55 0 57 -6 3 -9 -34 -21 -123 -40 -19 -4 -55 -61 -55 -87
0 -16 223 -3 290 17 144 44 258 132 311 241 76 154 22 231 -176 254 -49 5
-106 10 -125 10 -34 0 -36 -2 -47 -50z"/>
<path d="M5991 1129 c-82 -41 -182 -135 -243 -228 -55 -84 -60 -77 -19 27 16
39 27 72 25 72 -9 0 -86 -125 -128 -207 -62 -125 -96 -229 -96 -298 0 -94 35
-135 114 -135 116 0 343 222 455 446 78 154 94 308 37 346 -24 17 -86 7 -145
-23z"/>
<path d="M4004 769 c-72 -51 -151 -126 -168 -159 -7 -14 -19 -54 -25 -88 -11
-57 -11 -66 5 -83 25 -28 81 -25 133 9 l44 27 1 90 c1 82 4 97 38 168 20 42
36 77 34 77 -1 0 -29 -19 -62 -41z"/>
</g>
</svg>
